<svg id="Layer_1" data-name="Layer 1" xmlns="http://www.w3.org/2000/svg" viewBox="0 0 1433.46 232.5"><defs><style>.cls-1{fill:#a7a9ac;}</style></defs><path class="cls-1" d="M387.7,652.94c5.9,0,11.8.07,17.8,0q76.8-1.08,153.6-2.22c16.1-.22,31.3-2.73,45.6-8.26,10.8-4.16,22.8-5.74,35-5.74q201.75-.11,403.5,0h215c15.3,0,29.9,1.8,43.6,7.11,12.7,4.95,26.6,6.67,40.9,6.89l168.2,2.36a5.4,5.4,0,0,1,2.9.58c-1.4.07-2.9.21-4.3.28q-87.9,1.18-175.8,2.3c-13.5.14-26.6-1.72-38.5-6.46-15.7-6.24-32.9-6.81-50.3-6.81q-64.8.1-129.6,0-92.7,0-185.3.07-140.7,0-281.4,0c-15,0-29.3,2.08-42.6,7.24-11,4.31-23,6.1-35.4,6q-90.45-1-181-2.3c-.6,0-1.2-.07-1.9-.07A2.87,2.87,0,0,0,387.7,652.94Z" transform="translate(-242.27 -423.75)"/><path class="cls-1" d="M1522.5,426.7c-54.2.79-108.4,1.44-162.6,2.37-11.7.22-23.6.5-35.2,1.8a101.92,101.92,0,0,0-23,5.52,120.22,120.22,0,0,1-40.4,6.89H913.4q-133.65,0-267.3.07c-16.8,0-32.6-2.08-47.6-7.89-10.6-4.16-22.5-5.81-34.5-6q-76.8-1.19-153.6-2.15c-10.5-.15-21,0-31.6-.79q32.25-.44,64.5-.93c41.9-.58,83.9-1.3,125.8-1.8,13.4-.14,26.2,1.8,38.1,6.39,12.7,5,26.5,7,40.8,7h390.3q105.9,0,211.7.07c17.3,0,33.6-2.22,48.9-8.18,10.4-4,22-5.38,33.7-5.24q87.6,1.08,175.3,2.51c4.9.08,9.7,0,14.6,0C1522.6,426.35,1522.6,426.49,1522.5,426.7Z" transform="translate(-242.27 -423.75)"/><path class="cls-1" d="M252.21,511.64q.69,0,1,.9l11.18,37.12a.5.5,0,0,0,.55.48h.35a.56.56,0,0,0,.55-.48l11.18-34a5.78,5.78,0,0,1,2-3.17,5.49,5.49,0,0,1,3.1-.83h6.83a5.78,5.78,0,0,1,3.49.9,6.29,6.29,0,0,1,2,3.1l11.46,34a.55.55,0,0,0,.55.48h.41c.28,0,.46-.16.56-.48l10.9-37.12a1.08,1.08,0,0,1,.45-.73,1.34,1.34,0,0,1,.65-.17h9.32a.58.58,0,0,1,.65.48,2.09,2.09,0,0,1-.1,1.11L316,554.7a9.64,9.64,0,0,1-2.14,4.17,4.54,4.54,0,0,1-3.17,1.07h-8.07a4.34,4.34,0,0,1-3.14-1.1,10.87,10.87,0,0,1-2.18-4.14l-10.83-32.78a.5.5,0,0,0-.55-.48h-.28a.5.5,0,0,0-.55.48l-11,32.78a11,11,0,0,1-2.17,4.14,4.35,4.35,0,0,1-3.14,1.1H260.9a8.77,8.77,0,0,1-2-.21,3.64,3.64,0,0,1-1.55-.79,5.12,5.12,0,0,1-1.21-1.62,17.29,17.29,0,0,1-1-2.62l-12.69-41.47a2.38,2.38,0,0,1-.11-1.14.59.59,0,0,1,.66-.45Z" transform="translate(-242.27 -423.75)"/><path class="cls-1" d="M383.1,511.64c1.06,0,1.59.51,1.59,1.52v6.55c0,1-.53,1.52-1.59,1.52H353a18.31,18.31,0,0,0-4.45.45,6,6,0,0,0-2.83,1.52,5.77,5.77,0,0,0-1.49,2.9,21.25,21.25,0,0,0-.41,4.52v.69h39a1.34,1.34,0,0,1,1.52,1.51v5.45a1.34,1.34,0,0,1-1.52,1.52h-39V541a21.32,21.32,0,0,0,.41,4.52,5.78,5.78,0,0,0,1.49,2.89,5.9,5.9,0,0,0,2.83,1.52,18.31,18.31,0,0,0,4.45.45H383.1c1.06,0,1.59.51,1.59,1.52v6.55c0,1-.53,1.52-1.59,1.52H352.74a35,35,0,0,1-8.9-1,13.54,13.54,0,0,1-6-3.14,12.61,12.61,0,0,1-3.38-5.65,28.89,28.89,0,0,1-1.07-8.46V529.86a28.46,28.46,0,0,1,1.07-8.42,12.62,12.62,0,0,1,3.38-5.62,13.9,13.9,0,0,1,6-3.18,34,34,0,0,1,8.9-1Z" transform="translate(-242.27 -423.75)"/><path class="cls-1" d="M401.52,511.64a1.35,1.35,0,0,1,1.52,1.52v27.53a19.63,19.63,0,0,0,.45,4.59,6.23,6.23,0,0,0,1.48,2.9,5.7,5.7,0,0,0,2.8,1.51,18.31,18.31,0,0,0,4.45.45h27.94a1.35,1.35,0,0,1,1.52,1.52v6.76a1.35,1.35,0,0,1-1.52,1.52H411.8a35.07,35.07,0,0,1-8.9-1,13.54,13.54,0,0,1-6-3.14,12.61,12.61,0,0,1-3.38-5.65,29.23,29.23,0,0,1-1.07-8.46V513.16c0-1,.53-1.52,1.59-1.52Z" transform="translate(-242.27 -423.75)"/><path class="cls-1" d="M497.78,511.64a1.34,1.34,0,0,1,1.51,1.52v6.76c0,1.06-.5,1.59-1.51,1.59H467.07a18.37,18.37,0,0,0-4.45.45,5.79,5.79,0,0,0-2.79,1.51,6.23,6.23,0,0,0-1.49,2.87,19.09,19.09,0,0,0-.45,4.55v9.8a19.63,19.63,0,0,0,.45,4.59,6.24,6.24,0,0,0,1.49,2.9,5.71,5.71,0,0,0,2.79,1.51,18.37,18.37,0,0,0,4.45.45h30.71a1.34,1.34,0,0,1,1.51,1.52v6.76a1.34,1.34,0,0,1-1.51,1.52H466.66a35,35,0,0,1-8.9-1,13.54,13.54,0,0,1-6-3.14,12.61,12.61,0,0,1-3.38-5.65,28.89,28.89,0,0,1-1.07-8.46V529.86a28.46,28.46,0,0,1,1.07-8.42,12.62,12.62,0,0,1,3.38-5.62,13.9,13.9,0,0,1,6-3.18,34,34,0,0,1,8.9-1Z" transform="translate(-242.27 -423.75)"/><path class="cls-1" d="M546.76,511.64a34.45,34.45,0,0,1,8.94,1,13.9,13.9,0,0,1,6,3.18,12.4,12.4,0,0,1,3.35,5.62,29.61,29.61,0,0,1,1,8.42v11.86a30.06,30.06,0,0,1-1,8.46,12.39,12.39,0,0,1-3.35,5.65,13.54,13.54,0,0,1-6,3.14,35.46,35.46,0,0,1-8.94,1H525.44a35.07,35.07,0,0,1-8.9-1,13.59,13.59,0,0,1-6-3.14,12.7,12.7,0,0,1-3.38-5.65,29.23,29.23,0,0,1-1.07-8.46V529.86a28.8,28.8,0,0,1,1.07-8.42,12.71,12.71,0,0,1,3.38-5.62,14,14,0,0,1,6-3.18,34.07,34.07,0,0,1,8.9-1ZM516.68,541a19.29,19.29,0,0,0,.45,4.52,6.2,6.2,0,0,0,1.48,2.89,5.71,5.71,0,0,0,2.8,1.52,18.31,18.31,0,0,0,4.45.45h20.49a18.37,18.37,0,0,0,4.45-.45,5.75,5.75,0,0,0,2.8-1.52,6.2,6.2,0,0,0,1.48-2.89,19.29,19.29,0,0,0,.45-4.52V530.62a19.23,19.23,0,0,0-.45-4.52,6.19,6.19,0,0,0-1.48-2.9,5.84,5.84,0,0,0-2.8-1.52,18.37,18.37,0,0,0-4.45-.45H525.86a18.31,18.31,0,0,0-4.45.45,5.79,5.79,0,0,0-2.8,1.52,6.19,6.19,0,0,0-1.48,2.9,19.23,19.23,0,0,0-.45,4.52Z" transform="translate(-242.27 -423.75)"/><path class="cls-1" d="M588.3,511.64a14.17,14.17,0,0,1,2.62.21,4.94,4.94,0,0,1,1.94.79,5.84,5.84,0,0,1,1.48,1.59,17.36,17.36,0,0,1,1.35,2.65L610,550a1,1,0,0,0,1,.63h.83a1,1,0,0,0,1-.63l14.35-33.12a16.49,16.49,0,0,1,1.35-2.65,5.69,5.69,0,0,1,1.48-1.59,4.82,4.82,0,0,1,1.9-.79,13.57,13.57,0,0,1,2.58-.21h7.39q3.58,0,4.83,1.62c.82,1.08,1.24,2.93,1.24,5.56v39.6c0,1-.53,1.52-1.59,1.52h-7a1.34,1.34,0,0,1-1.51-1.52v-36c0-.45-.19-.69-.56-.69h-.62a.84.84,0,0,0-.89.56l-13.94,30.91a21.81,21.81,0,0,1-1.69,3.14,9.91,9.91,0,0,1-1.87,2.1,5.94,5.94,0,0,1-2.27,1.18,11.69,11.69,0,0,1-3,.34h-3.32a11.58,11.58,0,0,1-3-.34,6.06,6.06,0,0,1-2.28-1.18,10.16,10.16,0,0,1-1.86-2.1,20.87,20.87,0,0,1-1.69-3.14l-13.94-30.91a.85.85,0,0,0-.89-.56h-.63c-.36,0-.55.24-.55.69v36a1.34,1.34,0,0,1-1.51,1.52h-7c-1.06,0-1.59-.51-1.59-1.52v-39.6q0-3.95,1.24-5.56t4.9-1.62Z" transform="translate(-242.27 -423.75)"/><path class="cls-1" d="M706.15,511.64c1.06,0,1.59.51,1.59,1.52v6.55c0,1-.53,1.52-1.59,1.52H676a18.37,18.37,0,0,0-4.45.45,6,6,0,0,0-2.83,1.52,5.76,5.76,0,0,0-1.48,2.9,20.55,20.55,0,0,0-.42,4.52v.69h39a1.34,1.34,0,0,1,1.52,1.51v5.45a1.34,1.34,0,0,1-1.52,1.52h-39V541a20.62,20.62,0,0,0,.42,4.52,5.77,5.77,0,0,0,1.48,2.89,6,6,0,0,0,2.83,1.52,18.37,18.37,0,0,0,4.45.45h30.15c1.06,0,1.59.51,1.59,1.52v6.55c0,1-.53,1.52-1.59,1.52H675.79a35.07,35.07,0,0,1-8.9-1,13.54,13.54,0,0,1-6-3.14,12.61,12.61,0,0,1-3.38-5.65,29.23,29.23,0,0,1-1.07-8.46V529.86a28.8,28.8,0,0,1,1.07-8.42,12.62,12.62,0,0,1,3.38-5.62,13.9,13.9,0,0,1,6-3.18,34.07,34.07,0,0,1,8.9-1Z" transform="translate(-242.27 -423.75)"/><path class="cls-1" d="M791.3,511.64c1.06,0,1.58.51,1.58,1.52v6.76a1.4,1.4,0,0,1-1.58,1.59H769.63v36.91a1.35,1.35,0,0,1-1.52,1.52h-7.52a1.35,1.35,0,0,1-1.52-1.52V521.51H737.41a1.41,1.41,0,0,1-1.59-1.59v-6.76c0-1,.53-1.52,1.59-1.52Z" transform="translate(-242.27 -423.75)"/><path class="cls-1" d="M837.73,511.64a34.45,34.45,0,0,1,8.94,1,13.9,13.9,0,0,1,6,3.18,12.4,12.4,0,0,1,3.35,5.62,29.61,29.61,0,0,1,1,8.42v11.86a30.06,30.06,0,0,1-1,8.46,12.39,12.39,0,0,1-3.35,5.65,13.54,13.54,0,0,1-6,3.14,35.46,35.46,0,0,1-8.94,1H816.41a35.07,35.07,0,0,1-8.9-1,13.54,13.54,0,0,1-6-3.14,12.7,12.7,0,0,1-3.38-5.65,29.23,29.23,0,0,1-1.07-8.46V529.86a28.8,28.8,0,0,1,1.07-8.42,12.71,12.71,0,0,1,3.38-5.62,13.9,13.9,0,0,1,6-3.18,34.07,34.07,0,0,1,8.9-1ZM807.65,541a19.29,19.29,0,0,0,.45,4.52,6.2,6.2,0,0,0,1.48,2.89,5.71,5.71,0,0,0,2.8,1.52,18.31,18.31,0,0,0,4.45.45h20.49a18.37,18.37,0,0,0,4.45-.45,5.75,5.75,0,0,0,2.8-1.52,6.2,6.2,0,0,0,1.48-2.89,19.29,19.29,0,0,0,.45-4.52V530.62a19.23,19.23,0,0,0-.45-4.52,6.19,6.19,0,0,0-1.48-2.9,5.84,5.84,0,0,0-2.8-1.52,18.37,18.37,0,0,0-4.45-.45H816.83a18.31,18.31,0,0,0-4.45.45,5.79,5.79,0,0,0-2.8,1.52,6.19,6.19,0,0,0-1.48,2.9,19.23,19.23,0,0,0-.45,4.52Z" transform="translate(-242.27 -423.75)"/><path class="cls-1" d="M941.23,511.64c1.06,0,1.59.51,1.59,1.52v6.76a1.41,1.41,0,0,1-1.59,1.59H919.57v36.91a1.35,1.35,0,0,1-1.52,1.52h-7.52a1.35,1.35,0,0,1-1.52-1.52V521.51H887.34a1.4,1.4,0,0,1-1.58-1.59v-6.76a1.37,1.37,0,0,1,1.58-1.52Z" transform="translate(-242.27 -423.75)"/><path class="cls-1" d="M958,511.64a1.35,1.35,0,0,1,1.52,1.52V531.1h32.29V513.16a1.34,1.34,0,0,1,1.52-1.52h7.45c1.06,0,1.59.51,1.59,1.52v45.26c0,1-.53,1.52-1.59,1.52h-7.45a1.34,1.34,0,0,1-1.52-1.52V540.07H959.52v18.35a1.35,1.35,0,0,1-1.52,1.52h-7.45c-1.06,0-1.59-.51-1.59-1.52V513.16c0-1,.53-1.52,1.59-1.52Z" transform="translate(-242.27 -423.75)"/><path class="cls-1" d="M1060.6,511.64c1.06,0,1.59.51,1.59,1.52v6.55c0,1-.53,1.52-1.59,1.52h-30.15a18.31,18.31,0,0,0-4.45.45,6,6,0,0,0-2.83,1.52,5.76,5.76,0,0,0-1.48,2.9,20.55,20.55,0,0,0-.42,4.52v.69h39a1.33,1.33,0,0,1,1.51,1.51v5.45a1.34,1.34,0,0,1-1.51,1.52h-39V541a20.62,20.62,0,0,0,.42,4.52,5.77,5.77,0,0,0,1.48,2.89,5.9,5.9,0,0,0,2.83,1.52,18.31,18.31,0,0,0,4.45.45h30.15c1.06,0,1.59.51,1.59,1.52v6.55c0,1-.53,1.52-1.59,1.52h-30.36a35.07,35.07,0,0,1-8.9-1,13.54,13.54,0,0,1-6-3.14,12.61,12.61,0,0,1-3.38-5.65,29.23,29.23,0,0,1-1.07-8.46V529.86a28.8,28.8,0,0,1,1.07-8.42,12.62,12.62,0,0,1,3.38-5.62,13.9,13.9,0,0,1,6-3.18,34.07,34.07,0,0,1,8.9-1Z" transform="translate(-242.27 -423.75)"/><path class="cls-1" d="M1135.05,511.64q7.11,0,10.11,2.83t3,8.56v3.31a9.88,9.88,0,0,1-4.41,8.76q4.76,2.76,4.76,8.9v4a18.11,18.11,0,0,1-.63,5,9.13,9.13,0,0,1-2,3.76,9,9,0,0,1-3.76,2.38,17.4,17.4,0,0,1-5.8.83h-41a1.83,1.83,0,0,1-2.07-2.07V513.71a1.83,1.83,0,0,1,2.07-2.07Zm-31.26,20.08h28.29c2.3,0,3.87-.34,4.7-1a3.73,3.73,0,0,0,1.24-3V525.3a3.88,3.88,0,0,0-1.21-3.14,6.14,6.14,0,0,0-3.9-1h-28.22a.8.8,0,0,0-.9.9Zm0,7.52v10.28a.8.8,0,0,0,.9.9H1133a6,6,0,0,0,3.93-1,4,4,0,0,0,1.18-3.21v-2.62a4.07,4.07,0,0,0-1.28-3.25c-.85-.73-2.43-1.1-4.73-1.1Z" transform="translate(-242.27 -423.75)"/><path class="cls-1" d="M1195.77,511.64q7.93,0,11.39,3.59t3.45,10.62v3.94q0,5.93-2.42,9.38t-7.87,4.42l11.8,14.63a1.08,1.08,0,0,1,.21,1c-.09.46-.46.69-1.1.69h-8.9a2.62,2.62,0,0,1-1.25-.21,2.24,2.24,0,0,1-.69-.69l-10.9-14.35H1167.2v13.73a1.34,1.34,0,0,1-1.51,1.52h-7.46a1.37,1.37,0,0,1-1.58-1.52V513.71a1.83,1.83,0,0,1,2.07-2.07Zm-28.57,24.63h26.43c2.35,0,4-.5,5-1.51a6.49,6.49,0,0,0,1.45-4.63v-2.9a6.46,6.46,0,0,0-1.45-4.62c-1-1-2.62-1.52-5-1.52H1168.1c-.6,0-.9.28-.9.83Z" transform="translate(-242.27 -423.75)"/><path class="cls-1" d="M1258.21,511.64q7.93,0,11.39,3.59t3.45,10.62V531q0,7-3.45,10.63t-11.39,3.58h-28.56v13.25a1.35,1.35,0,0,1-1.52,1.52h-7.45c-1.06,0-1.59-.51-1.59-1.52V513.71a1.83,1.83,0,0,1,2.07-2.07Zm-28.56,24.43h26.43c2.34,0,4-.51,5-1.52a6.45,6.45,0,0,0,1.45-4.62V527.3a6.45,6.45,0,0,0-1.45-4.62c-1-1-2.62-1.52-5-1.52h-25.53c-.6,0-.9.28-.9.83Z" transform="translate(-242.27 -423.75)"/><path class="cls-1" d="M1311.9,511.64a1.35,1.35,0,0,1,1.52,1.52v27.53a19.69,19.69,0,0,0,.44,4.59,6.24,6.24,0,0,0,1.49,2.9,5.71,5.71,0,0,0,2.79,1.51,18.37,18.37,0,0,0,4.45.45h28a1.34,1.34,0,0,1,1.51,1.52v6.76a1.34,1.34,0,0,1-1.51,1.52h-28.36a35,35,0,0,1-8.9-1,13.54,13.54,0,0,1-6-3.14,12.61,12.61,0,0,1-3.38-5.65,28.89,28.89,0,0,1-1.07-8.46V513.16a1.37,1.37,0,0,1,1.58-1.52Z" transform="translate(-242.27 -423.75)"/><path class="cls-1" d="M1398.35,511.64a34.45,34.45,0,0,1,8.94,1,13.9,13.9,0,0,1,6,3.18,12.4,12.4,0,0,1,3.35,5.62,29.61,29.61,0,0,1,1,8.42v11.86a30.06,30.06,0,0,1-1,8.46,12.39,12.39,0,0,1-3.35,5.65,13.54,13.54,0,0,1-6,3.14,35.46,35.46,0,0,1-8.94,1H1377a35.07,35.07,0,0,1-8.9-1,13.54,13.54,0,0,1-6-3.14,12.61,12.61,0,0,1-3.38-5.65,29.23,29.23,0,0,1-1.07-8.46V529.86a28.8,28.8,0,0,1,1.07-8.42,12.62,12.62,0,0,1,3.38-5.62,13.9,13.9,0,0,1,6-3.18,34.07,34.07,0,0,1,8.9-1ZM1368.27,541a19.29,19.29,0,0,0,.45,4.52,6.2,6.2,0,0,0,1.48,2.89,5.71,5.71,0,0,0,2.8,1.52,18.31,18.31,0,0,0,4.45.45h20.49a18.37,18.37,0,0,0,4.45-.45,5.72,5.72,0,0,0,2.79-1.52,6.21,6.21,0,0,0,1.49-2.89,19.29,19.29,0,0,0,.45-4.52V530.62a19.23,19.23,0,0,0-.45-4.52,6.19,6.19,0,0,0-1.49-2.9,5.8,5.8,0,0,0-2.79-1.52,18.37,18.37,0,0,0-4.45-.45h-20.49a18.31,18.31,0,0,0-4.45.45,5.79,5.79,0,0,0-2.8,1.52,6.19,6.19,0,0,0-1.48,2.9,19.23,19.23,0,0,0-.45,4.52Z" transform="translate(-242.27 -423.75)"/><path class="cls-1" d="M1435.13,511.64a1.35,1.35,0,0,1,1.52,1.52v27.53a19.63,19.63,0,0,0,.45,4.59,6.14,6.14,0,0,0,1.48,2.9,5.71,5.71,0,0,0,2.79,1.51,18.43,18.43,0,0,0,4.45.45h19.12a18.43,18.43,0,0,0,4.45-.45,5.71,5.71,0,0,0,2.79-1.51,5.94,5.94,0,0,0,1.45-2.9,21,21,0,0,0,.42-4.59V513.16a1.34,1.34,0,0,1,1.51-1.52h7.52a1.34,1.34,0,0,1,1.52,1.52v28.56a30.06,30.06,0,0,1-1,8.46,12.39,12.39,0,0,1-3.35,5.65,13.54,13.54,0,0,1-6,3.14,35.46,35.46,0,0,1-8.94,1h-19.87a35,35,0,0,1-8.9-1,13.54,13.54,0,0,1-6-3.14,12.61,12.61,0,0,1-3.38-5.65,29.23,29.23,0,0,1-1.07-8.46V513.16c0-1,.53-1.52,1.59-1.52Z" transform="translate(-242.27 -423.75)"/><path class="cls-1" d="M1505.92,511.64a23.11,23.11,0,0,1,2.76.14,5.33,5.33,0,0,1,1.93.59,6.24,6.24,0,0,1,1.59,1.24,22.63,22.63,0,0,1,1.73,2.1l25.66,33.67a1,1,0,0,0,.9.49h.62c.37,0,.56-.23.56-.69v-36a1.34,1.34,0,0,1,1.51-1.52h7.25a1.35,1.35,0,0,1,1.52,1.52v39.6q0,4.22-1.52,5.7a6.48,6.48,0,0,1-4.69,1.48h-5.94a19.67,19.67,0,0,1-2.65-.14,5.71,5.71,0,0,1-1.9-.55,6.27,6.27,0,0,1-1.62-1.21,20.59,20.59,0,0,1-1.83-2.17l-25.74-33.67a1.18,1.18,0,0,0-.9-.49h-.62c-.37,0-.55.24-.55.69v36a1.35,1.35,0,0,1-1.52,1.52h-7.24c-1.06,0-1.59-.51-1.59-1.52v-39.6q0-4.22,1.52-5.7a6.51,6.51,0,0,1,4.69-1.48Z" transform="translate(-242.27 -423.75)"/><path class="cls-1" d="M1614.87,511.64a1.35,1.35,0,0,1,1.52,1.52v6.76c0,1.06-.51,1.59-1.52,1.59H1580.3a18.43,18.43,0,0,0-4.45.45,5.79,5.79,0,0,0-2.79,1.51,6.13,6.13,0,0,0-1.48,2.87,19.09,19.09,0,0,0-.45,4.55v9.94a19.63,19.63,0,0,0,.45,4.59,6.06,6.06,0,0,0,1.48,2.89,5.72,5.72,0,0,0,2.79,1.52,18.43,18.43,0,0,0,4.45.45h22.77a3.37,3.37,0,0,0,2.63-.93,5,5,0,0,0,.82-3.28v-5.59c0-.59-.27-.89-.82-.89h-20.22c-1,0-1.52-.53-1.52-1.59v-5.18a1.37,1.37,0,0,1,1.52-1.58h28.77a1.83,1.83,0,0,1,2.07,2.07v16.07c0,3.87-.73,6.59-2.21,8.18a8.2,8.2,0,0,1-6.34,2.38h-27.88a35,35,0,0,1-8.9-1,13.54,13.54,0,0,1-6-3.14,12.61,12.61,0,0,1-3.38-5.65,29.23,29.23,0,0,1-1.07-8.46V529.86a28.8,28.8,0,0,1,1.07-8.42,12.62,12.62,0,0,1,3.38-5.62,13.9,13.9,0,0,1,6-3.18,34,34,0,0,1,8.9-1Z" transform="translate(-242.27 -423.75)"/><path class="cls-1" d="M1674.14,511.64c1.06,0,1.59.51,1.59,1.52v6.55c0,1-.53,1.52-1.59,1.52H1644a18.37,18.37,0,0,0-4.45.45,6,6,0,0,0-2.83,1.52,5.76,5.76,0,0,0-1.48,2.9,20.55,20.55,0,0,0-.42,4.52v.69h39a1.34,1.34,0,0,1,1.52,1.51v5.45a1.34,1.34,0,0,1-1.52,1.52h-39V541a20.62,20.62,0,0,0,.42,4.52,5.77,5.77,0,0,0,1.48,2.89,6,6,0,0,0,2.83,1.52,18.37,18.37,0,0,0,4.45.45h30.15c1.06,0,1.59.51,1.59,1.52v6.55c0,1-.53,1.52-1.59,1.52h-30.36a35.07,35.07,0,0,1-8.9-1,13.59,13.59,0,0,1-6-3.14,12.7,12.7,0,0,1-3.38-5.65,29.23,29.23,0,0,1-1.07-8.46V529.86a28.8,28.8,0,0,1,1.07-8.42,12.71,12.71,0,0,1,3.38-5.62,14,14,0,0,1,6-3.18,34.07,34.07,0,0,1,8.9-1Z" transform="translate(-242.27 -423.75)"/></svg>